<?xml version="1.0" encoding="utf-8"?>
<!-- Generator: Adobe Illustrator 15.0.0, SVG Export Plug-In . SVG Version: 6.00 Build 0)  -->
<!DOCTYPE svg PUBLIC "-//W3C//DTD SVG 1.1//EN" "http://www.w3.org/Graphics/SVG/1.1/DTD/svg11.dtd">
<svg version="1.1" id="Layer_1" xmlns="http://www.w3.org/2000/svg" xmlns:xlink="http://www.w3.org/1999/xlink" x="0px" y="0px"
	 width="152px" height="215.859px" viewBox="0 0 152 215.859" enable-background="new 0 0 152 215.859" xml:space="preserve">
<g id="Layer_1_1_" display="none">
</g>
<g id="Layer_2" display="none">
	<rect x="141" y="70.86" display="inline" width="8" height="145"/>
</g>
<g id="Layer_3" display="none">
	<path display="inline" fill="none" stroke="#000000" stroke-width="10" stroke-miterlimit="10" d="M148.68,201.073"/>
	<path display="inline" fill="none" stroke="#000000" stroke-width="10" stroke-miterlimit="10" d="M4,201.073"/>
	<rect x="4" y="207.86" display="inline" width="145" height="8"/>
</g>
<g id="Layer_4">
	<rect x="6" y="86" width="6.276" height="130"/>
	<path fill="none" stroke="#000000" stroke-width="10" stroke-miterlimit="10" d="M9.243,215.714"/>
	<path fill="none" stroke="#000000" stroke-width="10" stroke-miterlimit="10" d="M9.243,86"/>
</g>
<g id="Layer_5">
	<rect x="6" y="86" width="130" height="6.276"/>
</g>
<g id="Layer_7" display="none">
	<g display="inline">
		<g>
			<path d="M76.286,150.702c9.686,0,9.771-15.004,0.108-15.004C66.708,135.698,66.622,150.702,76.286,150.702L76.286,150.702z"/>
		</g>
	</g>
	<rect id="_x3C_Slice_x3E_" y="15.86" display="inline" fill="none" width="152" height="201"/>
</g>
<g id="Layer_6" display="none">
	<g display="inline">
		<g>
			<path d="M90.63,150.702c9.687,0,9.771-15.004,0.107-15.004C81.052,135.698,80.966,150.702,90.63,150.702L90.63,150.702z"/>
		</g>
	</g>
	<g display="inline">
		<g>
			<path d="M61.76,150.702c9.687,0,9.772-15.004,0.108-15.004C52.182,135.698,52.096,150.702,61.76,150.702L61.76,150.702z"/>
		</g>
	</g>
</g>
</svg>
