<?xml version="1.0" encoding="utf-8"?>
<!-- Generator: Adobe Illustrator 15.0.0, SVG Export Plug-In . SVG Version: 6.00 Build 0)  -->
<!DOCTYPE svg PUBLIC "-//W3C//DTD SVG 1.1//EN" "http://www.w3.org/Graphics/SVG/1.1/DTD/svg11.dtd">
<svg version="1.1" xmlns="http://www.w3.org/2000/svg" xmlns:xlink="http://www.w3.org/1999/xlink" x="0px" y="0px" width="200px"
	 height="200px" viewBox="0 0 200 200" enable-background="new 0 0 200 200" xml:space="preserve">
<g id="Layer_1">
</g>
<g id="Layer_2">
	<line fill="none" stroke="#000000" stroke-width="10" stroke-miterlimit="10" x1="195" y1="0" x2="195" y2="200"/>
</g>
<g id="Layer_3">
	<line fill="none" stroke="#000000" stroke-width="10" stroke-miterlimit="10" x1="0" y1="195" x2="200" y2="195"/>
</g>
<g id="Layer_4" display="none">
	<line display="inline" fill="none" stroke="#000000" stroke-width="10" stroke-miterlimit="10" x1="5" y1="0" x2="5" y2="200"/>
</g>
<g id="Layer_5" display="none">
	<line display="inline" fill="none" stroke="#000000" stroke-width="10" stroke-miterlimit="10" x1="0" y1="5" x2="200" y2="5"/>
</g>
<g id="Layer_6" display="none">
	<g display="inline">
		<g>
			<path d="M114.246,107.502c9.686,0,9.771-15.003,0.107-15.003C104.668,92.499,104.582,107.502,114.246,107.502L114.246,107.502z"
				/>
		</g>
	</g>
	<g display="inline">
		<g>
			<path d="M85.395,107.502c9.687,0,9.772-15.003,0.108-15.003C75.817,92.499,75.731,107.502,85.395,107.502L85.395,107.502z"/>
		</g>
	</g>
</g>
<g id="Layer_7" display="none">
	<g display="inline">
		<g>
			<path d="M99.946,107.502c9.686,0,9.772-15.003,0.108-15.003C90.368,92.499,90.282,107.502,99.946,107.502L99.946,107.502z"/>
		</g>
	</g>
</g>
</svg>
