<?xml version="1.0" encoding="utf-8"?>
<!-- Generator: Adobe Illustrator 15.0.0, SVG Export Plug-In . SVG Version: 6.00 Build 0)  -->
<!DOCTYPE svg PUBLIC "-//W3C//DTD SVG 1.1//EN" "http://www.w3.org/Graphics/SVG/1.1/DTD/svg11.dtd">
<svg version="1.1" id="Layer_1" xmlns="http://www.w3.org/2000/svg" xmlns:xlink="http://www.w3.org/1999/xlink" x="0px" y="0px"
	 width="152px" height="215.859px" viewBox="0 0 152 215.859" enable-background="new 0 0 152 215.859" xml:space="preserve">
<g id="Layer_1_1_" display="none">
</g>
<g id="Layer_2">
	<rect x="128.827" y="86" width="7.173" height="130"/>
</g>
<g id="Layer_3">
	<path fill="none" stroke="#000000" stroke-width="10" stroke-miterlimit="10" d="M135.713,202.742"/>
	<path fill="none" stroke="#000000" stroke-width="10" stroke-miterlimit="10" d="M6,202.742"/>
	<rect x="6" y="208.827" width="130" height="7.173"/>
</g>
<g id="Layer_4">
	<rect x="6" y="86" width="6.276" height="130"/>
	<path fill="none" stroke="#000000" stroke-width="10" stroke-miterlimit="10" d="M9.243,215.714"/>
	<path fill="none" stroke="#000000" stroke-width="10" stroke-miterlimit="10" d="M9.243,86"/>
</g>
<g id="Layer_5">
	<rect x="6" y="86" width="130" height="6.276"/>
</g>
<g>
	<g>
		<path d="M70.808,157.583c8.684,0,8.761-13.451,0.097-13.451C62.221,144.132,62.144,157.583,70.808,157.583L70.808,157.583z"/>
	</g>
</g>
<g id="Layer_6" display="none">
	<g display="inline">
		<g>
			<path d="M90.63,150.702c9.687,0,9.771-15.004,0.107-15.004C81.052,135.698,80.966,150.702,90.63,150.702L90.63,150.702z"/>
		</g>
	</g>
	<g display="inline">
		<g>
			<path d="M61.76,150.702c9.687,0,9.772-15.004,0.108-15.004C52.182,135.698,52.096,150.702,61.76,150.702L61.76,150.702z"/>
		</g>
	</g>
</g>
</svg>
