<?xml version="1.0" encoding="utf-8"?>
<!-- Generator: Adobe Illustrator 15.0.0, SVG Export Plug-In . SVG Version: 6.00 Build 0)  -->
<!DOCTYPE svg PUBLIC "-//W3C//DTD SVG 1.1//EN" "http://www.w3.org/Graphics/SVG/1.1/DTD/svg11.dtd">
<svg version="1.1" id="Layer_1" xmlns="http://www.w3.org/2000/svg" xmlns:xlink="http://www.w3.org/1999/xlink" x="0px" y="0px"
	 width="152px" height="215.859px" viewBox="0 0 152 215.859" enable-background="new 0 0 152 215.859" xml:space="preserve">
<g id="Layer_1_1_" display="none">
</g>
<g id="Layer_2" display="none">
	<rect x="141" y="70.86" display="inline" width="8" height="145"/>
</g>
<g id="Layer_3">
	<path fill="none" stroke="#000000" stroke-width="10" stroke-miterlimit="10" d="M135.713,202.742"/>
	<path fill="none" stroke="#000000" stroke-width="10" stroke-miterlimit="10" d="M6,202.742"/>
	<rect x="6" y="208.827" width="130" height="7.173"/>
</g>
<g id="Layer_4">
	<rect x="6" y="86" width="6.276" height="130"/>
	<path fill="none" stroke="#000000" stroke-width="10" stroke-miterlimit="10" d="M9.243,215.714"/>
	<path fill="none" stroke="#000000" stroke-width="10" stroke-miterlimit="10" d="M9.243,86"/>
</g>
<g id="Layer_5" display="none">
	<rect x="4" y="70.86" display="inline" width="145" height="7"/>
</g>
<g id="Layer_7" display="none">
	<g display="inline">
		<g>
			<path d="M76.286,150.702c9.686,0,9.771-15.004,0.108-15.004C66.708,135.698,66.622,150.702,76.286,150.702L76.286,150.702z"/>
		</g>
	</g>
	<rect id="_x3C_Slice_x3E_" y="15.86" display="inline" fill="none" width="152" height="201"/>
</g>
<g id="Layer_6">
	<g>
		<g>
			<path d="M83.668,157.583c8.685,0,8.761-13.451,0.097-13.451C75.081,144.132,75.004,157.583,83.668,157.583L83.668,157.583z"/>
		</g>
	</g>
	<g>
		<g>
			<path d="M57.785,157.583c8.685,0,8.761-13.451,0.097-13.451C49.198,144.132,49.121,157.583,57.785,157.583L57.785,157.583z"/>
		</g>
	</g>
</g>
</svg>
