<?xml version="1.0" encoding="utf-8"?>
<!-- Generator: Adobe Illustrator 15.0.0, SVG Export Plug-In . SVG Version: 6.00 Build 0)  -->
<!DOCTYPE svg PUBLIC "-//W3C//DTD SVG 1.1//EN" "http://www.w3.org/Graphics/SVG/1.1/DTD/svg11.dtd">
<svg version="1.1" id="Layer_1" xmlns="http://www.w3.org/2000/svg" xmlns:xlink="http://www.w3.org/1999/xlink" x="0px" y="0px"
	 width="151px" height="216px" viewBox="11.5 -0.07 151 216" enable-background="new 11.5 -0.07 151 216" xml:space="preserve">
<g id="Layer_1_1_" display="none">
</g>
<g id="Layer_2">
	<rect x="140.327" y="85.93" width="7.173" height="130"/>
</g>
<g id="Layer_3">
	<path fill="none" stroke="#000000" stroke-width="10" stroke-miterlimit="10" d="M147.213,202.672"/>
	<path fill="none" stroke="#000000" stroke-width="10" stroke-miterlimit="10" d="M17.5,202.672"/>
	<rect x="17.5" y="208.757" width="130" height="7.173"/>
</g>
<g id="Layer_4" display="none">
	<rect x="28" y="70.86" display="inline" width="7" height="145"/>
	<path display="inline" fill="none" stroke="#000000" stroke-width="10" stroke-miterlimit="10" d="M31.617,215.54"/>
	<path display="inline" fill="none" stroke="#000000" stroke-width="10" stroke-miterlimit="10" d="M31.617,70.86"/>
</g>
<g id="Layer_5" display="none">
	<rect x="28" y="70.86" display="inline" width="145" height="7"/>
</g>
<g id="Layer_7" display="none">
	<g display="inline">
		<g>
			<path d="M100.286,150.702c9.686,0,9.771-15.004,0.107-15.004C90.708,135.698,90.622,150.702,100.286,150.702L100.286,150.702z"/>
		</g>
	</g>
	<rect id="_x3C_Slice_x3E_" x="24" y="15.86" display="inline" fill="none" width="152" height="201"/>
</g>
<g id="Layer_6" display="none">
	<g display="inline">
		<g>
			<path d="M114.63,150.702c9.687,0,9.771-15.004,0.107-15.004C105.052,135.698,104.966,150.702,114.63,150.702L114.63,150.702z"/>
		</g>
	</g>
	<g display="inline">
		<g>
			<path d="M85.76,150.702c9.688,0,9.772-15.004,0.108-15.004C76.182,135.698,76.096,150.702,85.76,150.702L85.76,150.702z"/>
		</g>
	</g>
</g>
</svg>
